<svg width="18" height="18" viewBox="0 0 18 18" fill="none" xmlns="http://www.w3.org/2000/svg">
<path d="M18 16.3125C18 17.2445 17.2445 18 16.3125 18H1.6875C0.755508 18 0 17.2445 0 16.3125V7.05671C3.10857e-06 6.80082 0.0582009 6.54828 0.170191 6.3182C0.282181 6.08812 0.445029 5.88651 0.646418 5.72865C1.52227 5.04208 2.24606 4.48535 6.41907 1.45678C7.01058 1.02551 8.18427 -0.0121938 9 0.00011093C9.81555 -0.0123344 10.9897 1.02569 11.5809 1.45674C15.7535 4.48499 16.4783 5.0425 17.3536 5.72865C17.555 5.88651 17.7178 6.08812 17.8298 6.3182C17.9418 6.54828 18 6.80082 18 7.05671V16.3125ZM15.6914 9.40061C15.6013 9.26955 15.4207 9.23907 15.2928 9.33357C14.4896 9.92676 13.343 10.7646 11.5809 12.0434C10.9894 12.4746 9.81573 13.5122 9 13.4999C8.18399 13.512 7.0116 12.4753 6.41907 12.0434C4.65725 10.7647 3.51046 9.92683 2.70721 9.33357C2.57927 9.23907 2.39868 9.26955 2.30857 9.40061L1.98963 9.86453C1.94829 9.92463 1.93193 9.99845 1.94399 10.0704C1.95605 10.1423 1.9956 10.2068 2.05429 10.2501C2.85891 10.8442 4.00384 11.6806 5.75634 12.9525C6.4691 13.4721 7.74352 14.6334 9 14.625C10.2559 14.6335 11.5299 13.4729 12.2436 12.9525C13.9962 11.6806 15.1411 10.8442 15.9457 10.2501C16.0044 10.2068 16.0439 10.1423 16.056 10.0704C16.068 9.99845 16.0517 9.92463 16.0103 9.86453L15.6914 9.40061Z" fill="white"/>
</svg>
