<svg width="14" height="18" viewBox="0 0 14 18" fill="none" xmlns="http://www.w3.org/2000/svg">
<path d="M8.125 4.78125V0H1.09375C0.626172 0 0.25 0.376172 0.25 0.84375V17.1562C0.25 17.6238 0.626172 18 1.09375 18H12.9062C13.3738 18 13.75 17.6238 13.75 17.1562V5.625H8.96875C8.50469 5.625 8.125 5.24531 8.125 4.78125ZM10.375 13.0781C10.375 13.3102 10.1852 13.5 9.95312 13.5H4.04688C3.81484 13.5 3.625 13.3102 3.625 13.0781V12.7969C3.625 12.5648 3.81484 12.375 4.04688 12.375H9.95312C10.1852 12.375 10.375 12.5648 10.375 12.7969V13.0781ZM10.375 10.8281C10.375 11.0602 10.1852 11.25 9.95312 11.25H4.04688C3.81484 11.25 3.625 11.0602 3.625 10.8281V10.5469C3.625 10.3148 3.81484 10.125 4.04688 10.125H9.95312C10.1852 10.125 10.375 10.3148 10.375 10.5469V10.8281ZM10.375 8.29688V8.57812C10.375 8.81016 10.1852 9 9.95312 9H4.04688C3.81484 9 3.625 8.81016 3.625 8.57812V8.29688C3.625 8.06484 3.81484 7.875 4.04688 7.875H9.95312C10.1852 7.875 10.375 8.06484 10.375 8.29688ZM13.75 4.28555V4.5H9.25V0H9.46445C9.68945 0 9.90391 0.0878906 10.0621 0.246094L13.5039 3.69141C13.6621 3.84961 13.75 4.06406 13.75 4.28555Z" fill="white"/>
</svg>
