<svg width="2196" height="482" viewBox="0 0 2196 482" fill="none" xmlns="http://www.w3.org/2000/svg">
<path d="M2094.31 382.62C2056.85 418.51 2008.87 436.45 1950.39 436.45C1891.91 436.45 1845.02 418.61 1808.56 382.92C1772.1 347.23 1753.88 301.12 1753.88 244.58C1753.88 188.04 1772.11 142.05 1808.56 106.56C1845.02 71.08 1892.3 53.33 1950.39 53.33C2008.48 53.33 2056.85 71.17 2094.31 106.86C2131.77 142.55 2150.5 188.46 2150.5 244.58C2150.5 300.7 2131.77 346.73 2094.31 382.61M2124.45 77.63C2076.95 31.31 2019.53 8.14004 1952.19 8.14004C1884.85 8.14004 1827.43 31.31 1779.93 77.63C1732.43 123.96 1708.68 179.62 1708.68 244.59C1708.68 309.56 1732.43 365.83 1779.93 412.15C1827.43 458.48 1884.84 481.64 1952.19 481.64C2019.54 481.64 2076.95 458.48 2124.45 412.15C2171.95 365.83 2195.7 309.97 2195.7 244.59C2195.7 179.21 2171.94 123.97 2124.45 77.63ZM1685.66 396.25C1651.97 421.95 1610.67 434.79 1561.75 434.79V479.96C1625.5 479.96 1680.64 458.68 1727.15 416.12L1685.65 396.25H1685.66ZM1727.15 72.01C1680.64 29.43 1625.5 8.14004 1561.75 8.14004V53.33C1610.67 53.33 1651.97 66.19 1685.66 91.9L1727.16 72.01H1727.15ZM1561.75 434.81C1506.83 434.81 1460.44 416.36 1422.56 379.44C1384.68 342.53 1365.74 297.4 1365.74 244.04C1365.74 190.68 1384.68 145.55 1422.56 108.64C1460.44 71.73 1506.83 53.27 1561.75 53.27V8.14004C1495.58 8.14004 1438.84 31.11 1391.52 77.05C1344.2 122.99 1320.55 178.66 1320.55 244.05C1320.55 309.44 1344.21 365.12 1391.52 411.05C1438.84 456.99 1495.57 479.96 1561.75 479.96V434.82V434.81ZM1202.92 382.62C1165.46 418.51 1117.49 436.45 1059 436.45C1000.51 436.45 953.63 418.61 917.18 382.92C880.72 347.23 862.49 301.12 862.49 244.58C862.49 188.04 880.72 142.05 917.18 106.56C953.64 71.08 1000.91 53.33 1059 53.33C1117.09 53.33 1165.46 71.17 1202.92 106.86C1240.39 142.55 1259.11 188.46 1259.11 244.58C1259.11 300.7 1240.38 346.73 1202.92 382.61M1233.06 77.63C1185.56 31.31 1128.14 8.14004 1060.8 8.14004C993.46 8.14004 936.03 31.31 888.54 77.63C841.04 123.96 817.29 179.62 817.29 244.59C817.29 309.56 841.04 365.83 888.54 412.15C936.04 458.48 993.46 481.64 1060.8 481.64C1128.14 481.64 1185.56 458.48 1233.06 412.15C1280.56 365.83 1304.31 309.97 1304.31 244.59C1304.31 179.21 1280.55 123.97 1233.06 77.63ZM665.06 481.64L815.44 0.540039H770.3L666.37 334.47L557.64 0.540039H512.89L665.06 481.63V481.64ZM541 481.65V436.54H394.43V0.540039H349.23V481.65H541ZM151.8 134.31L210.42 323.25H94.2602L151.8 134.31ZM258.6 481.65H303.29L152.92 0.560038L0.740234 481.65H45.9302L79.9602 368.45H223.66L258.6 481.65Z" fill="white"/>
</svg>
